<?xml version="1.0" encoding="UTF-8" ?>
<!DOCTYPE svg PUBLIC "-//W3C//DTD SVG 1.1//EN" "http://www.w3.org/Graphics/SVG/1.1/DTD/svg11.dtd">
<svg width="256pt" height="256pt" viewBox="0 0 256 256" version="1.1" xmlns="http://www.w3.org/2000/svg">
<g id="#4183D7ff">
<path fill="#4183D7" opacity="1.00" d=" M 4.54 2.66 C 7.53 0.42 11.49 1.10 14.98 0.98 C 92.02 1.05 169.07 0.94 246.12 1.03 C 250.97 0.74 255.29 5.11 254.97 9.96 C 255.01 70.33 255.03 130.70 254.97 191.07 C 255.26 195.87 250.87 200.23 246.08 199.94 C 208.06 200.01 170.03 199.94 132.00 199.97 C 132.02 215.50 131.96 231.02 132.03 246.55 C 171.01 246.50 209.99 246.57 248.96 246.51 C 251.18 246.32 253.77 247.00 254.65 249.28 C 255.81 251.48 253.96 254.08 251.83 254.78 C 248.90 255.22 245.92 254.97 242.97 255.01 C 163.95 254.98 84.92 255.03 5.90 254.98 C 3.01 255.30 -0.08 252.05 1.37 249.24 C 2.27 246.98 4.84 246.32 7.05 246.51 C 46.03 246.56 85.01 246.52 123.99 246.54 C 124.01 231.02 124.00 215.50 124.00 199.97 C 85.98 199.94 47.96 200.00 9.95 199.95 C 5.15 200.24 0.73 195.88 1.03 191.06 C 0.95 131.04 1.04 71.02 0.99 11.00 C 0.84 7.88 1.82 4.47 4.54 2.66 M 9.47 13.93 C 9.46 30.78 9.47 47.64 9.47 64.50 C 88.49 64.50 167.51 64.50 246.53 64.50 C 246.55 47.97 246.49 31.44 246.56 14.92 C 246.52 13.45 246.60 11.73 245.35 10.69 C 243.44 8.74 240.42 9.65 238.00 9.44 C 163.35 9.51 88.69 9.45 14.04 9.46 C 11.53 9.17 9.20 11.40 9.47 13.93 M 9.46 127.99 C 88.48 128.02 167.50 127.99 246.52 128.00 C 246.55 109.67 246.50 91.35 246.55 73.02 C 167.53 72.90 88.51 73.01 9.49 72.96 C 9.44 91.31 9.49 109.65 9.46 127.99 M 9.47 136.47 C 9.48 153.34 9.46 170.21 9.47 187.08 C 9.12 190.13 12.27 191.94 14.99 191.51 C 90.64 191.46 166.30 191.55 241.95 191.47 C 244.48 191.77 246.83 189.58 246.53 187.02 C 246.53 170.17 246.53 153.32 246.53 136.47 C 167.51 136.47 88.49 136.47 9.47 136.47 Z" />
<path fill="#4183D7" opacity="1.00" d=" M 34.34 31.34 C 36.43 30.45 38.77 30.66 40.98 30.59 C 55.00 30.72 69.01 30.53 83.02 30.68 C 86.54 30.41 89.91 33.38 89.88 36.94 C 89.99 40.55 86.48 43.52 82.96 43.30 C 68.31 43.41 53.64 43.28 38.99 43.36 C 36.28 43.45 33.16 42.87 31.70 40.31 C 29.53 37.30 31.08 32.82 34.34 31.34 Z" />
<path fill="#4183D7" opacity="1.00" d=" M 114.37 31.45 C 117.06 30.19 120.14 30.72 123.01 30.61 C 129.98 30.83 136.97 30.29 143.92 30.84 C 148.46 31.32 150.62 37.22 147.89 40.71 C 145.71 43.94 141.38 43.28 138.03 43.37 C 130.72 43.11 123.38 43.72 116.10 43.08 C 110.52 42.20 109.34 33.92 114.37 31.45 Z" />
<path fill="#4183D7" opacity="1.00" d=" M 195.37 31.21 C 199.22 29.25 204.50 32.68 204.06 37.05 C 204.45 41.80 198.36 45.01 194.53 42.32 C 190.23 40.01 190.72 32.85 195.37 31.21 Z" />
<path fill="#4183D7" opacity="1.00" d=" M 216.28 31.38 C 220.82 28.67 226.93 34.06 224.96 38.90 C 223.79 42.91 218.33 44.73 215.13 41.89 C 211.49 39.28 212.20 33.17 216.28 31.38 Z" />
<path fill="#4183D7" opacity="1.00" d=" M 36.29 94.29 C 51.51 93.91 66.77 94.24 82.00 94.13 C 85.30 93.81 88.94 95.64 89.71 99.05 C 90.82 103.04 87.03 107.04 83.05 106.80 C 67.99 106.88 52.93 106.84 37.87 106.82 C 35.07 106.96 32.18 105.49 31.15 102.78 C 29.51 99.15 32.38 94.59 36.29 94.29 Z" />
<path fill="#4183D7" opacity="1.00" d=" M 117.18 94.23 C 124.44 93.94 131.72 94.26 138.99 94.09 C 141.96 94.14 145.58 93.82 147.67 96.43 C 150.77 99.85 148.52 106.33 143.76 106.67 C 135.52 107.07 127.26 106.73 119.01 106.84 C 115.92 107.08 112.45 105.61 111.43 102.48 C 109.96 98.72 113.16 94.21 117.18 94.23 Z" />
<path fill="#4183D7" opacity="1.00" d=" M 197.32 94.21 C 202.16 93.61 205.80 99.30 203.42 103.51 C 201.32 107.75 194.50 107.85 192.39 103.56 C 189.90 99.80 192.93 94.44 197.32 94.21 Z" />
<path fill="#4183D7" opacity="1.00" d=" M 217.42 94.44 C 222.05 92.90 226.97 98.37 224.83 102.83 C 223.28 107.05 217.11 108.18 214.30 104.60 C 211.12 101.37 213.09 95.42 217.42 94.44 Z" />
<path fill="#4183D7" opacity="1.00" d=" M 34.34 158.33 C 36.12 157.55 38.12 157.66 40.02 157.59 C 53.69 157.67 67.36 157.63 81.03 157.61 C 83.33 157.71 86.05 157.51 87.76 159.37 C 90.60 161.66 90.58 166.50 87.61 168.69 C 85.87 170.41 83.28 170.29 81.01 170.36 C 66.67 170.28 52.32 170.38 37.97 170.32 C 35.32 170.43 32.50 169.23 31.37 166.70 C 29.65 163.72 31.35 159.72 34.34 158.33 Z" />
<path fill="#4183D7" opacity="1.00" d=" M 114.37 158.45 C 117.04 157.19 120.12 157.72 122.98 157.61 C 129.99 157.83 137.03 157.28 144.02 157.85 C 148.49 158.41 150.59 164.22 147.90 167.69 C 145.74 170.94 141.40 170.28 138.04 170.37 C 130.71 170.10 123.35 170.73 116.05 170.07 C 110.51 169.14 109.37 160.92 114.37 158.45 Z" />
<path fill="#4183D7" opacity="1.00" d=" M 195.35 158.22 C 199.18 156.24 204.47 159.65 204.06 164.00 C 204.48 168.74 198.43 172.02 194.58 169.35 C 190.24 167.08 190.69 159.88 195.35 158.22 Z" />
<path fill="#4183D7" opacity="1.00" d=" M 213.35 161.35 C 214.29 158.96 216.89 158.22 219.01 157.28 C 221.41 158.23 224.24 159.33 224.98 162.12 C 226.77 166.62 221.55 171.78 217.07 169.94 C 213.65 168.89 211.57 164.57 213.35 161.35 Z" />
</g>
</svg>
